<svg xmlns="http://www.w3.org/2000/svg" viewBox="0 0 512 512" role="img" aria-label="HDW">
  <!-- Sumi-on-washi favicon: warm paper, rust ink enso ring, serif italic monogram inset.
       The enso path is procedurally generated to taper from loaded brush (top-right entry)
       to dry brush (lower-right exit), leaving the calligraphic open gap. -->
  <rect width="512" height="512" rx="96" fill="#F4EFE3"/>
  <path
    d="M 437.3 151.3 L 444.1 163.8 L 450.0 176.7 L 454.8 190.1 L 458.4 203.9 L 460.9 217.8 L 462.4 231.9 L 462.8 246.0 L 462.2 260.0 L 460.8 273.9 L 458.6 287.7 L 455.6 301.3 L 451.9 314.6 L 447.4 327.8 L 442.2 340.6 L 436.1 353.1 L 429.2 365.1 L 421.4 376.7 L 412.8 387.6 L 403.5 397.8 L 393.4 407.4 L 382.7 416.2 L 371.4 424.3 L 359.7 431.7 L 347.6 438.4 L 335.1 444.4 L 322.3 449.6 L 309.1 454.2 L 295.6 457.8 L 281.9 460.6 L 268.0 462.3 L 254.0 463.0 L 239.9 462.5 L 226.0 460.9 L 212.2 458.1 L 198.7 454.2 L 185.6 449.4 L 172.9 443.6 L 160.7 437.0 L 148.9 429.6 L 137.7 421.6 L 126.9 412.9 L 116.7 403.6 L 107.2 393.7 L 98.4 383.2 L 90.3 372.0 L 83.1 360.4 L 76.8 348.2 L 71.4 335.6 L 67.0 322.7 L 63.5 309.6 L 60.9 296.3 L 59.1 282.9 L 58.0 269.5 L 57.7 256.0 L 58.1 242.5 L 59.2 229.1 L 61.0 215.7 L 63.7 202.5 L 67.3 189.4 L 71.9 176.6 L 77.4 164.1 L 83.9 152.2 L 91.4 140.7 L 99.7 129.9 L 108.8 119.8 L 118.6 110.4 L 129.0 101.6 L 139.9 93.6 L 151.3 86.3 L 163.1 79.7 L 175.3 73.8 L 187.9 68.8 L 189.6 73.5 L 177.5 78.8 L 165.8 84.8 L 154.6 91.6 L 143.8 99.0 L 133.5 107.1 L 123.7 115.8 L 114.6 125.2 L 106.1 135.1 L 98.5 145.7 L 91.7 156.8 L 85.8 168.5 L 80.9 180.5 L 76.9 192.8 L 73.9 205.3 L 71.7 217.9 L 70.3 230.6 L 69.7 243.3 L 69.7 256.0 L 70.4 268.6 L 71.7 281.2 L 73.7 293.6 L 76.4 306.0 L 80.0 318.1 L 84.3 330.0 L 89.6 341.6 L 95.7 352.8 L 102.6 363.4 L 110.3 373.5 L 118.7 383.0 L 127.7 392.0 L 137.3 400.3 L 147.3 408.1 L 157.8 415.2 L 168.7 421.8 L 180.0 427.6 L 191.7 432.7 L 203.7 436.9 L 216.1 440.2 L 228.7 442.5 L 241.4 443.8 L 254.2 443.9 L 266.9 443.1 L 279.5 441.2 L 291.8 438.4 L 303.9 434.8 L 315.7 430.5 L 327.2 425.5 L 338.3 419.9 L 349.1 413.7 L 359.5 406.9 L 369.4 399.5 L 378.9 391.4 L 387.8 382.8 L 396.0 373.5 L 403.5 363.6 L 410.3 353.3 L 416.3 342.4 L 421.6 331.3 L 426.1 319.8 L 429.9 308.1 L 433.1 296.2 L 435.7 284.1 L 437.6 271.9 L 438.8 259.5 L 439.2 247.1 L 438.9 234.6 L 437.6 222.2 L 435.3 209.8 L 432.1 197.7 L 427.8 185.8 L 422.6 174.3 L 416.5 163.3 Z"
    fill="#9C3D24"/>
  <text x="256" y="298" text-anchor="middle"
        font-family="Newsreader, 'Source Serif 4', Georgia, serif"
        font-style="italic" font-weight="400" font-size="148"
        letter-spacing="-4" fill="#1A1814">hdw</text>
</svg>
